<svg width="60" height="60" viewBox="0 0 60 60" fill="none" xmlns="http://www.w3.org/2000/svg">
<circle cx="30" cy="30" r="30" fill="white" fill-opacity="0.1"/>
<path d="M39.7333 24.56V31.4267C39.7333 35.5333 37.3867 37.2933 33.8667 37.2933H22.1467C21.5467 37.2933 20.9733 37.24 20.44 37.12C20.1067 37.0667 19.7867 36.9734 19.4933 36.8667C17.4933 36.12 16.28 34.3867 16.28 31.4267V24.56C16.28 20.4533 18.6267 18.6934 22.1467 18.6934H33.8667C36.8533 18.6934 39 19.96 39.5733 22.8534C39.6667 23.3867 39.7333 23.9333 39.7333 24.56Z" stroke="white" stroke-width="1.5" stroke-miterlimit="10" stroke-linecap="round" stroke-linejoin="round"/>
<path d="M43.7348 28.5601V35.4268C43.7348 39.5335 41.3881 41.2935 37.8681 41.2935H26.1481C25.1615 41.2935 24.2681 41.1602 23.4948 40.8669C21.9081 40.2802 20.8281 39.0669 20.4415 37.1202C20.9748 37.2402 21.5481 37.2935 22.1481 37.2935H33.8681C37.3881 37.2935 39.7348 35.5335 39.7348 31.4268V24.5601C39.7348 23.9335 39.6815 23.3735 39.5748 22.8535C42.1081 23.3868 43.7348 25.1735 43.7348 28.5601Z" stroke="white" stroke-width="1.5" stroke-miterlimit="10" stroke-linecap="round" stroke-linejoin="round"/>
<path d="M27.9979 31.5199C29.942 31.5199 31.5179 29.9439 31.5179 27.9998C31.5179 26.0558 29.942 24.4798 27.9979 24.4798C26.0539 24.4798 24.4779 26.0558 24.4779 27.9998C24.4779 29.9439 26.0539 31.5199 27.9979 31.5199Z" stroke="white" stroke-width="1.5" stroke-miterlimit="10" stroke-linecap="round" stroke-linejoin="round"/>
<path d="M20.3734 25.0667V30.9333" stroke="white" stroke-width="1.5" stroke-miterlimit="10" stroke-linecap="round" stroke-linejoin="round"/>
<path d="M35.629 25.067V30.9337" stroke="white" stroke-width="1.5" stroke-miterlimit="10" stroke-linecap="round" stroke-linejoin="round"/>
</svg>
